<?xml version="1.0" encoding="UTF-8" standalone="no"?>
<!-- Uploaded to: SVG Repo, www.svgrepo.com, Transformed by: SVG Repo Mixer Tools -->

<svg
   width="800px"
   height="800px"
   viewBox="0 0 32 32"
   version="1.1"
   fill="#000000"
   id="svg1"
   sodipodi:docname="envelope.svg"
   inkscape:version="1.4 (86a8ad7, 2024-10-11)"
   xmlns:inkscape="http://www.inkscape.org/namespaces/inkscape"
   xmlns:sodipodi="http://sodipodi.sourceforge.net/DTD/sodipodi-0.dtd"
   xmlns="http://www.w3.org/2000/svg"
   xmlns:svg="http://www.w3.org/2000/svg"
   xmlns:sketch="http://www.bohemiancoding.com/sketch/ns">
  <defs
     id="defs2" />
  <sodipodi:namedview
     id="namedview1"
     pagecolor="#ffffff"
     bordercolor="#000000"
     borderopacity="0.25"
     inkscape:showpageshadow="2"
     inkscape:pageopacity="0.0"
     inkscape:pagecheckerboard="0"
     inkscape:deskcolor="#d1d1d1"
     inkscape:zoom="0.59349679"
     inkscape:cx="137.32172"
     inkscape:cy="442.29388"
     inkscape:window-width="1920"
     inkscape:window-height="1009"
     inkscape:window-x="-8"
     inkscape:window-y="-8"
     inkscape:window-maximized="1"
     inkscape:current-layer="svg1" />
  <g
     id="SVGRepo_bgCarrier"
     stroke-width="0" />
  <g
     id="SVGRepo_tracerCarrier"
     stroke-linecap="round"
     stroke-linejoin="round" />
  <g
     id="SVGRepo_iconCarrier"
     style="fill:#000000;stroke-width:0.02;stroke-dasharray:none;stroke:#ffffff;stroke-opacity:1">
    <title
       id="title1">envelope-open</title>
    <desc
       id="desc1">Created with Sketch Beta.</desc>
    <defs
       id="defs1" />
    <g
       id="Page-1"
       stroke="none"
       stroke-width="1"
       fill="none"
       fill-rule="evenodd"
       sketch:type="MSPage"
       style="fill:#000000;stroke-width:0.02;stroke-dasharray:none;stroke:#ffffff;stroke-opacity:1">
      <g
         id="Icon-Set-Filled"
         sketch:type="MSLayerGroup"
         transform="translate(-518.000000, -257.000000)"
         fill="#fff"
         style="fill:#000000;stroke-width:0.02;stroke-dasharray:none;stroke:#ffffff;stroke-opacity:1">
        <path
           d="M534,280 L530.742,277.76 L520.323,288.621 C520.835,288.858 521.399,289 522,289 L546,289 C546.601,289 547.165,288.858 547.677,288.621 L537.258,277.76 L534,280 L534,280 Z M538.935,276.607 L549.29,287.27 C549.736,286.624 550,285.844 550,285 L550,268.317 L538.935,276.607 L538.935,276.607 Z M549.76,265.851 L534,257 L518.24,265.851 L534,277.656 L549.76,265.851 L549.76,265.851 Z M518,268 L518,285 C518,285.844 518.264,286.624 518.71,287.27 L529.066,276.607 L518,268 L518,268 Z"
           id="envelope-open"
           sketch:type="MSShapeGroup"
           style="fill:#ffffff;stroke-width:0.02;stroke-dasharray:none;stroke:#ffffff;stroke-opacity:1" />
      </g>
    </g>
  </g>
</svg>
