<?xml version="1.0" encoding="UTF-8" standalone="no"?>
<svg
   width="24"
   height="24"
   viewBox="0 0 24 24"
   fill="none"
   version="1.1"
   id="svg1"
   sodipodi:docname="instagram.svg"
   inkscape:version="1.4 (e7c3feb100, 2024-10-09)"
   xmlns:inkscape="http://www.inkscape.org/namespaces/inkscape"
   xmlns:sodipodi="http://sodipodi.sourceforge.net/DTD/sodipodi-0.dtd"
   xmlns="http://www.w3.org/2000/svg"
   xmlns:svg="http://www.w3.org/2000/svg">
  <defs
     id="defs1" />
  <sodipodi:namedview
     id="namedview1"
     pagecolor="#ffffff"
     bordercolor="#000000"
     borderopacity="0.25"
     inkscape:showpageshadow="2"
     inkscape:pageopacity="0.0"
     inkscape:pagecheckerboard="0"
     inkscape:deskcolor="#d1d1d1"
     inkscape:zoom="14.146826"
     inkscape:cx="-6.7859747"
     inkscape:cy="17.283029"
     inkscape:window-width="1920"
     inkscape:window-height="1011"
     inkscape:window-x="0"
     inkscape:window-y="0"
     inkscape:window-maximized="1"
     inkscape:current-layer="svg1" />
  <path
     fill-rule="evenodd"
     clip-rule="evenodd"
     d="m 12.00706,2.1613597 c 3.20805,0 3.587959,0.014067 4.849681,0.070325 1.172581,0.051573 1.805699,0.2484921 2.227874,0.412582 0.558097,0.2156721 0.961445,0.4782217 1.378913,0.8954894 0.422079,0.4219535 0.680091,0.8204684 0.895837,1.3783969 0.164163,0.4219536 0.361178,1.0595793 0.412761,2.2269995 0.05629,1.2658702 0.07032,1.6456322 0.07032,4.8478375 0,3.206901 -0.01403,3.586663 -0.07032,4.847799 -0.05158,1.172125 -0.248598,1.805094 -0.412761,2.227009 -0.215746,0.55788 -0.478465,0.961167 -0.895837,1.378377 -0.422175,0.422012 -0.820816,0.679827 -1.378913,0.89549 -0.422175,0.164099 -1.06,0.361038 -2.227874,0.412601 -1.266428,0.05627 -1.646338,0.07029 -4.849681,0.07029 -3.2081743,0 -3.5880837,-0.01402 -4.8497578,-0.07029 -1.172561,-0.05156 -1.8057371,-0.248501 -2.227864,-0.4126 C 4.3713027,21.126003 3.9679454,20.863483 3.5505061,20.446176 3.1283887,20.024261 2.8704249,19.625679 2.6546786,19.067799 2.4905155,18.645884 2.2935293,18.00821 2.2419365,16.84079 c -0.05628,-1.265842 -0.070353,-1.645604 -0.070353,-4.8478 0,-3.2068906 0.014073,-3.5866526 0.070353,-4.847837 C 2.2935293,5.973047 2.4905155,5.3401071 2.6546786,4.9181535 2.8704249,4.360225 3.1330764,3.9570243 3.5505061,3.5397566 3.9726331,3.117803 4.3713027,2.8599393 4.9294382,2.6442672 5.3515651,2.4801773 5.9894384,2.283258 7.1573022,2.2316852 8.4189763,2.1754267 8.7988857,2.1613597 12.00706,2.1613597 Z M 12.00706,0 C 8.747293,0 8.3392481,0.01406521 7.0588139,0.07032626 5.7830674,0.12658702 4.9059904,0.33287798 4.1461715,0.62824834 3.3535199,0.93768382 2.682814,1.345577 2.0168054,2.0160227 1.3460994,2.6817729 0.93804786,3.3522185 0.62849225,4.1398766 0.33300722,4.9040865 0.12663617,5.7761276 0.07035357,7.0513791 0.01407067,8.3360118 0,8.7438983 0,12.002304 c 0,3.258464 0.01407067,3.66636 0.07035357,4.946317 0.0562826,1.275251 0.26265365,2.152017 0.55813868,2.911541 0.30955561,0.792363 0.71760715,1.46278 1.38831315,2.128492 0.6660086,0.665807 1.3367145,1.078408 2.1246785,1.383082 0.7645065,0.29536 1.6368862,0.501709 2.9126328,0.557977 C 8.3345509,23.985981 8.7426053,24 12.002353,24 c 3.259729,0 3.667784,-0.01402 4.948141,-0.07029 1.275747,-0.05627 2.152852,-0.262617 2.912671,-0.557977 0.787964,-0.304674 1.458641,-0.717275 2.124708,-1.383082 0.66597,-0.665712 1.078731,-1.336129 1.383619,-2.123787 0.295475,-0.764229 0.501807,-1.63629 0.558097,-2.911541 C 23.985879,15.673369 24,15.265473 24,12.00701 24,8.7485937 23.985879,8.3406976 23.929589,7.0607603 23.873299,5.7855089 23.666967,4.9087723 23.371492,4.1492482 23.076018,3.3522185 22.667963,2.6817729 21.99719,2.0160227 21.33122,1.3502629 20.660543,0.93768382 19.872579,0.63293607 19.108053,0.33756571 18.235654,0.13127572 16.959908,0.07501467 15.674748,0.01406521 15.266693,0 12.00706,0 Z m -9.6e-5,5.8370816 c -3.4050645,0 -6.1676162,2.7614797 -6.1676162,6.1652224 0,3.40384 2.7625517,6.1653 6.1676162,6.1653 3.405161,0 6.167693,-2.76146 6.167693,-6.1653 0,-3.4037427 -2.762532,-6.1652224 -6.167693,-6.1652224 z m 0,10.1644864 c -2.2090461,0 -4.0007298,-1.790979 -4.0007298,-3.999264 0,-2.2081885 1.7916837,-3.9991769 4.0007298,-3.9991769 2.209143,0 4.000817,1.7909884 4.000817,3.9991769 0,2.208285 -1.791674,3.999264 -4.000817,3.999264 z m 6.411585,-8.9687401 c 0.792671,0 1.43991,-0.6423115 1.43991,-1.4393509 0,-0.792344 -0.647239,-1.4393413 -1.43991,-1.4393413 -0.792671,0 -1.43991,0.6423115 -1.43991,1.4393413 0,0.7923439 0.642628,1.4393509 1.43991,1.4393509 z"
     fill="#000000"
     id="path1"
     style="stroke-width:0.960394" />
</svg>
